<svg width="40" height="40" viewBox="0 0 40 40" fill="none" xmlns="http://www.w3.org/2000/svg">
<path d="M34.9533 6.04847C37.1729 5.71969 38.9017 7.93942 38.0393 10.0109L37.8623 10.4361C37.5502 11.1857 37.5723 12.0354 37.9209 12.7688C38.8534 14.7311 37.3447 16.985 35.1759 16.8551C33.6679 16.7647 32.4912 15.5154 32.4912 14.0047V8.90217C32.4912 7.47218 33.5388 6.25801 34.9533 6.04847Z" fill="black"/>
<path d="M2.8966 3.31442C5.25275 2.76144 7.50888 4.54937 7.50888 6.96955V15.4093C7.50888 18.9237 9.54359 22.1203 12.7276 23.608L13.0293 23.7489C16.0292 25.1506 17.9462 28.1624 17.9462 31.4736V36.757C17.9462 38.5481 16.4943 40 14.7033 40C12.5588 40 11.0048 37.9558 11.5784 35.8895L12.3022 33.2825C13.1042 30.3937 11.3523 27.4153 8.43775 26.7126L5.95052 26.1129C2.45978 25.2712 0 22.1478 0 18.557V6.96955C0 5.2265 1.19966 3.71269 2.8966 3.31442Z" fill="black"/>
<path d="M19.7223 0.972613C21.8416 0.475717 23.8707 2.08404 23.8707 4.26087V11.8376C23.8707 14.9983 25.7012 17.873 28.5653 19.2098L28.8392 19.3377C31.5361 20.5965 33.2599 23.3034 33.2599 26.2797V31.0238C33.2599 32.6348 31.954 33.9407 30.343 33.9407C28.4139 33.9407 27.0162 32.1015 27.5327 30.2428L28.1825 27.9045C28.9039 25.3085 27.3294 22.6316 24.7099 22.0007L22.468 21.4607C19.3284 20.7044 17.1158 17.8956 17.1158 14.6662V4.26087C17.1158 2.69257 18.1954 1.3306 19.7223 0.972613Z" fill="black"/>
</svg>
